<?xml version="1.0" encoding="UTF-8" standalone="no"?>
<svg
   version="1.0"
   width="512.000000pt"
   height="512.000000pt"
   viewBox="0 0 512.000000 512.000000"
   preserveAspectRatio="xMidYMid meet"
   id="svg6"
   sodipodi:docname="info_icon.svg"
   xml:space="preserve"
   inkscape:export-filename="pin-resturaunt.svg"
   inkscape:export-xdpi="96"
   inkscape:export-ydpi="96"
   inkscape:version="1.2.2 (732a01da63, 2022-12-09)"
   xmlns:inkscape="http://www.inkscape.org/namespaces/inkscape"
   xmlns:sodipodi="http://sodipodi.sourceforge.net/DTD/sodipodi-0.dtd"
   xmlns="http://www.w3.org/2000/svg"
   xmlns:svg="http://www.w3.org/2000/svg"><defs
     id="defs10" /><sodipodi:namedview
     id="namedview8"
     pagecolor="#ffffff"
     bordercolor="#000000"
     borderopacity="0.25"
     inkscape:showpageshadow="2"
     inkscape:pageopacity="0.0"
     inkscape:pagecheckerboard="0"
     inkscape:deskcolor="#d1d1d1"
     inkscape:document-units="pt"
     showgrid="true"
     showguides="true"
     inkscape:zoom="0.75219727"
     inkscape:cx="341.00097"
     inkscape:cy="388.86076"
     inkscape:window-width="1278"
     inkscape:window-height="1360"
     inkscape:window-x="1273"
     inkscape:window-y="0"
     inkscape:window-maximized="0"
     inkscape:current-layer="svg6"><inkscape:grid
       type="xygrid"
       id="grid1161" /><sodipodi:guide
       position="113.51163,971.68685"
       orientation="0,-1"
       id="guide6699"
       inkscape:locked="false" /></sodipodi:namedview><g
     transform="matrix(0.12316834,0,0,-0.12316834,-59.280963,573.5759)"
     fill="#000000"
     stroke="none"
     id="g4"
     style="stroke:none;stroke-width:43.8548;stroke-dasharray:none;stroke-opacity:1;fill:#4949a9;fill-opacity:1;opacity:0.7"><path
       d="m 2435,4645.1366 c -205,-13 -385,-61 -583,-155 -391,-186 -684,-517 -825,-934 -169,-498 -97,-1058 192,-1495 80,-121 1225,-1511.99997 1265,-1535.99997 41,-25 111,-25 153,0 17,11 260,298 540,637.99997 658,799 678,824 735,913 406,631 350,1477 -135,2030 -142,163 -296,280 -492,375 -207,101 -387,151 -575,161 -58,3 -116,6 -130,8 -14,1 -79,-1 -145,-5 z"
       id="path2"
       style="stroke:none;stroke-width:43.8548;stroke-dasharray:none;stroke-opacity:1;fill:#4949a9;fill-opacity:1" /></g><path
     style="fill:#ffffff;fill-opacity:1;stroke:none;stroke-width:0.594512"
     d="m 184.91386,103.01778 h -36.67161 c -13.15447,0 -26.15906,0.13817 -36.04675,10.00349 -12.719618,12.69032 -10.24364,30.16689 -10.24364,46.43705 v 102.88642 c 0,16.0015 -1.42195,32.71495 13.22583,43.56505 11.63542,8.61895 25.3357,6.99628 39.0763,6.99628 h 75.14673 111.21715 c 15.1532,0 36.00791,3.63454 49.89744,-3.15714 18.2835,-8.94053 19.23758,-26.37714 19.23758,-43.87665 V 162.98586 c 0,-14.43467 2.971,-32.06823 -5.72318,-44.6821 -17.0998,-24.809035 -49.96295,-11.34161 -74.80767,-15.37306 -3.96776,-0.64388 -3.56137,-8.002089 -4.93985,-11.083448 -2.82372,-6.311702 -8.30762,-11.341842 -14.92535,-13.701415 -8.15852,-2.908922 -17.8729,-1.584565 -26.45165,-1.584565 h -50.4986 c -9.75224,0 -21.39637,-1.729908 -30.65987,1.652181 -10.55781,3.854589 -16.7421,14.069685 -16.83286,24.804327 m 24.64811,-11.56473 c 7.20689,-1.269966 15.52414,-0.193719 22.84462,-0.193719 h 45.08802 c 7.97459,0 20.35276,-2.268326 27.65342,1.128635 11.20047,5.211756 0.0692,23.229584 13.22642,25.715894 15.08766,2.85085 33.30925,0.1999 48.69508,0.1999 8.93526,0 18.12479,-0.38039 23.9141,7.65182 7.16961,9.94647 3.73992,27.80343 3.73992,39.38198 v 97.00718 c 0,13.53692 1.78306,31.51912 -15.63054,35.26654 -7.068,1.52036 -15.03475,0.59672 -22.24344,0.59672 H 316.57092 188.52089 145.83755 c -7.83053,0 -15.8767,0.48211 -22.21932,-4.89679 -9.80195,-8.31206 -6.03585,-26.68227 -6.03585,-38.02153 V 161.2221 c 0,-10.73194 -3.40319,-27.74525 4.33627,-36.44237 6.08755,-6.84108 14.25924,-6.47597 22.71655,-6.47597 h 34.86809 c 4.67052,0 11.24976,1.14938 15.62992,-0.59322 11.51608,-4.58168 -0.56751,-23.615076 14.42876,-26.25749 m 43.28453,46.50142 c -25.84506,3.31707 -48.00613,13.80854 -60.78469,37.37776 -26.51057,48.89692 15.93291,109.47704 72.20699,102.71828 35.81134,-4.30124 63.52003,-34.40699 63.52003,-69.79463 0,-37.03558 -34.71719,-75.46395 -74.94233,-70.30141 m 104.00307,0.026 c -17.84162,3.35467 -11.82026,30.22626 6.01176,27.16378 18.38509,-3.15715 12.26273,-30.5996 -6.01176,-27.16378 m -107.00894,15.76631 c 54.31245,-6.3519 84.41684,64.53684 41.481,97.62217 -9.11799,7.02626 -19.84356,10.64845 -31.26104,11.98421 -6.30873,0.73784 -13.15789,-0.26692 -19.23757,-1.93662 -45.36337,-12.46335 -55.69034,-73.07111 -16.2317,-98.80977 7.56758,-4.9362 16.24192,-7.80643 25.24931,-8.85999 z"
     id="path317" /></svg>
