<?xml version="1.0" encoding="UTF-8" standalone="no"?>
<svg
   version="1.0"
   width="512.000000pt"
   height="512.000000pt"
   viewBox="0 0 512.000000 512.000000"
   preserveAspectRatio="xMidYMid meet"
   id="svg6"
   sodipodi:docname="pin-drinks.svg"
   xml:space="preserve"
   inkscape:export-filename="pin-resturaunt.svg"
   inkscape:export-xdpi="96"
   inkscape:export-ydpi="96"
   inkscape:version="1.2.2 (732a01da63, 2022-12-09)"
   xmlns:inkscape="http://www.inkscape.org/namespaces/inkscape"
   xmlns:sodipodi="http://sodipodi.sourceforge.net/DTD/sodipodi-0.dtd"
   xmlns="http://www.w3.org/2000/svg"
   xmlns:svg="http://www.w3.org/2000/svg"><defs
     id="defs10" /><sodipodi:namedview
     id="namedview8"
     pagecolor="#ffffff"
     bordercolor="#000000"
     borderopacity="0.25"
     inkscape:showpageshadow="2"
     inkscape:pageopacity="0.0"
     inkscape:pagecheckerboard="0"
     inkscape:deskcolor="#d1d1d1"
     inkscape:document-units="pt"
     showgrid="true"
     showguides="true"
     inkscape:zoom="0.75219727"
     inkscape:cx="287.82343"
     inkscape:cy="303.77669"
     inkscape:window-width="1278"
     inkscape:window-height="1360"
     inkscape:window-x="1266"
     inkscape:window-y="0"
     inkscape:window-maximized="0"
     inkscape:current-layer="svg6"><inkscape:grid
       type="xygrid"
       id="grid1161" /><sodipodi:guide
       position="113.51163,971.68685"
       orientation="0,-1"
       id="guide6699"
       inkscape:locked="false" /></sodipodi:namedview><g
     transform="matrix(0.12316834,0,0,-0.12316834,-59.280963,573.5759)"
     fill="#000000"
     stroke="none"
     id="g4"
     style="stroke:none;stroke-width:43.8548;stroke-dasharray:none;stroke-opacity:1;fill:#000000;fill-opacity:0.75"><path
       d="m 2435,4645.1366 c -205,-13 -385,-61 -583,-155 -391,-186 -684,-517 -825,-934 -169,-498 -97,-1058 192,-1495 80,-121 1225,-1511.99997 1265,-1535.99997 41,-25 111,-25 153,0 17,11 260,298 540,637.99997 658,799 678,824 735,913 406,631 350,1477 -135,2030 -142,163 -296,280 -492,375 -207,101 -387,151 -575,161 -58,3 -116,6 -130,8 -14,1 -79,-1 -145,-5 z"
       id="path2"
       style="stroke:none;stroke-width:43.8548;stroke-dasharray:none;stroke-opacity:1;fill:#000000;fill-opacity:0.75" /></g><path
     style="fill:#ffffff;fill-opacity:1;stroke:none;stroke-width:0.607102"
     d="m 270.57179,233.17155 c 34.92772,-4.70321 71.55777,-38.87449 74.01167,-74.67341 1.26094,-18.39153 -5.95081,-37.44314 -11.68243,-54.6391 -3.15087,-9.45268 -6.54942,-18.765609 -10.47008,-27.926641 -1.8808,-4.394561 -3.9753,-9.893105 -7.65251,-13.116848 -5.66911,-4.96931 -21.21999,-2.060677 -28.42203,-2.060677 h -58.8888 c -8.15581,0 -19.53469,-2.056299 -27.31894,0.396298 -4.46644,1.40709 -6.74003,6.660704 -8.64815,10.531521 -4.87866,9.898113 -8.51035,20.510724 -11.99388,30.962157 -4.88049,14.64066 -11.01888,30.62155 -12.0874,46.13966 -1.27368,18.49473 5.77658,36.28581 17.50333,50.38939 5.19376,6.24706 11.1391,11.76927 17.6539,16.61635 7.60212,5.65697 16.022,10.33589 24.89114,13.69984 3.75006,1.42244 11.42078,1.89597 14.20434,4.73053 2.03865,2.07568 0.8293,7.19172 1.14621,9.87875 1.17534,9.95948 0.43408,20.32634 0.43408,30.35505 0,14.63295 -0.55186,29.12931 -1.19053,43.71126 -0.25619,5.86036 0.66477,15.37726 -2.53706,20.52912 -2.0077,3.23161 -6.82504,4.50408 -10.23574,5.56106 -9.27287,2.87279 -19.54075,2.07567 -28.53374,5.7547 -6.3606,2.60204 -10.69286,10.15984 -6.67265,16.71409 4.88898,7.97004 21.21211,4.86592 29.13538,4.86592 h 75.88762 c 9.52966,0 22.92596,-0.33632 19.79513,-13.96331 -1.24637,-5.42445 -7.08061,-7.746 -11.90282,-9.01182 -9.4483,-2.48061 -27.55813,-0.61802 -34.16279,-9.33053 -4.53624,-5.98359 -2.30151,-18.30774 -2.97357,-25.36893 -2.49822,-26.25043 -1.35991,-54.51341 0.71032,-80.74443 M 203.903,70.227715 c 5.9866,-2.522263 17.06558,-0.366326 23.56461,-0.366326 h 55.85329 17.60593 c 2.27723,0 5.66182,-0.607283 7.69258,0.623978 2.14731,1.301808 3.2486,4.504689 4.29281,6.661233 3.03672,6.272446 5.26295,12.911095 7.69925,19.427232 9.79984,26.209148 21.44644,55.615908 8.55405,82.565738 -8.56194,17.89672 -25.35072,30.85832 -42.80911,39.30493 -6.93856,3.35666 -23.46021,4.11857 -24.78734,12.90575 -2.10299,13.91719 -1.31255,28.4439 -1.31801,42.49707 -0.005,13.86375 -0.81655,28.01226 0.50391,41.88996 0.82989,8.71918 -1.06972,20.9541 4.2333,28.53132 6.07768,8.68337 19.61361,10.32375 29.26044,11.70189 4.21391,0.60162 8.73011,0.76129 12.73759,2.32094 1.42243,0.55367 4.21146,2.57713 1.63675,3.82836 -5.50459,2.67672 -17.3473,0.36426 -23.48085,0.36426 h -58.28169 -18.82014 c -1.43093,-6e-4 -5.68489,0.56644 -5.68489,-1.78122 0,-3.56308 9.94675,-4.04875 12.36302,-4.32014 10.64429,-1.19659 27.16776,-2.93897 33.06696,-13.32586 5.28786,-9.31051 3.72092,-24.84136 3.97529,-35.21186 0.60529,-24.72054 3.17697,-51.30549 -0.18516,-75.88761 -1.0266,-7.50681 -8.47877,-7.34411 -14.39437,-9.02154 -12.16873,-3.44954 -23.72004,-9.84353 -33.39055,-17.95683 -5.30666,-4.45247 -10.22843,-9.29107 -14.31241,-14.91161 -20.3403,-27.99647 -10.64855,-56.25093 -0.66295,-86.20834 2.79752,-8.391588 5.82695,-16.807405 9.42707,-24.891136 1.19477,-2.682475 2.74409,-7.511236 5.66062,-8.740189 m -10.84709,93.577695 c -3.20428,1.6337 -0.63321,8.10966 0.22887,10.47734 3.3506,9.20001 10.98671,18.37027 18.3982,24.62464 19.34649,16.32614 52.38917,20.88973 75.28053,8.8333 12.38061,-6.52025 22.94902,-17.00004 29.82323,-29.20823 1.68955,-3.00089 5.71888,-11.07838 2.59414,-14.20433 -1.74602,-1.74542 -5.8907,-0.97318 -8.13334,-0.97318 h -21.24853 -69.2095 -19.42724 c -2.40656,0 -6.10196,-0.67329 -8.30636,0.45046 z"
     id="path3697" /></svg>
