<?xml version="1.0" encoding="UTF-8" standalone="no"?>
<svg
   version="1.0"
   width="512.000000pt"
   height="512.000000pt"
   viewBox="0 0 512.000000 512.000000"
   preserveAspectRatio="xMidYMid meet"
   id="svg6"
   sodipodi:docname="cafe_icon.svg"
   xml:space="preserve"
   inkscape:export-filename="pin-resturaunt.svg"
   inkscape:export-xdpi="96"
   inkscape:export-ydpi="96"
   inkscape:version="1.2.2 (732a01da63, 2022-12-09)"
   xmlns:inkscape="http://www.inkscape.org/namespaces/inkscape"
   xmlns:sodipodi="http://sodipodi.sourceforge.net/DTD/sodipodi-0.dtd"
   xmlns="http://www.w3.org/2000/svg"
   xmlns:svg="http://www.w3.org/2000/svg"><defs
     id="defs10" /><sodipodi:namedview
     id="namedview8"
     pagecolor="#ffffff"
     bordercolor="#000000"
     borderopacity="0.25"
     inkscape:showpageshadow="2"
     inkscape:pageopacity="0.0"
     inkscape:pagecheckerboard="0"
     inkscape:deskcolor="#d1d1d1"
     inkscape:document-units="pt"
     showgrid="true"
     showguides="true"
     inkscape:zoom="0.75219727"
     inkscape:cx="298.45894"
     inkscape:cy="388.86076"
     inkscape:window-width="1278"
     inkscape:window-height="1360"
     inkscape:window-x="-7"
     inkscape:window-y="0"
     inkscape:window-maximized="0"
     inkscape:current-layer="svg6"><inkscape:grid
       type="xygrid"
       id="grid1161" /><sodipodi:guide
       position="113.51163,971.68685"
       orientation="0,-1"
       id="guide6699"
       inkscape:locked="false" /></sodipodi:namedview><g
     transform="matrix(0.12316834,0,0,-0.12316834,-59.280963,573.5759)"
     fill="#000000"
     stroke="none"
     id="g4"
     style="stroke:none;stroke-width:43.8548;stroke-dasharray:none;stroke-opacity:1;fill:#9abc36;fill-opacity:1;opacity:1"><path
       d="m 2435,4645.1366 c -205,-13 -385,-61 -583,-155 -391,-186 -684,-517 -825,-934 -169,-498 -97,-1058 192,-1495 80,-121 1225,-1511.99997 1265,-1535.99997 41,-25 111,-25 153,0 17,11 260,298 540,637.99997 658,799 678,824 735,913 406,631 350,1477 -135,2030 -142,163 -296,280 -492,375 -207,101 -387,151 -575,161 -58,3 -116,6 -130,8 -14,1 -79,-1 -145,-5 z"
       id="path2"
       style="stroke:none;stroke-width:43.8548;stroke-dasharray:none;stroke-opacity:1;fill:#9abc36;fill-opacity:1" /></g><path
     style="fill:#ffffff;fill-opacity:1;stroke:none;stroke-width:0.550703"
     d="m 192.67149,47.752527 c -4.68759,1.060938 -7.73298,6.104133 -6.07431,10.718754 2.40772,6.699308 10.82578,11.066498 9.65002,19.274627 -1.12342,7.842571 -9.25638,11.905604 -13.75398,17.622507 -8.88857,11.298225 -8.37158,25.620375 -0.78608,37.447835 2.87787,4.48713 8.10014,11.5075 14.26858,10.16159 4.65123,-1.01496 7.66138,-6.18606 6.13813,-10.71229 -2.39005,-7.09912 -11.01462,-11.13853 -9.52001,-19.82533 1.30132,-7.56226 9.16206,-11.48139 13.55997,-17.071805 8.92691,-11.346688 8.3718,-25.585518 0.80623,-37.447839 -2.95562,-4.633949 -7.8712,-11.6204 -14.28855,-10.168049 m 52.31684,0.01234 c -4.81811,1.242446 -7.35189,6.686172 -5.50208,11.257122 2.7838,6.877297 10.7569,10.715535 9.29919,19.368134 -1.11354,6.607723 -7.95767,10.689043 -12.12925,15.347889 -10.291,11.493498 -10.31083,27.062988 -1.84487,39.628938 3.03383,4.50311 7.71316,10.98985 14.03194,9.61089 4.66885,-1.01881 7.61347,-6.21249 5.98394,-10.71229 -2.48037,-6.8469 -10.8026,-10.92211 -9.67091,-19.27463 1.048,-7.73793 8.78372,-11.47776 13.23286,-17.071799 9.06183,-11.393554 9.15931,-25.890054 1.27819,-37.998539 -3.05806,-4.698603 -8.15042,-11.839185 -14.67901,-10.155715 m 52.86754,-0.01359 c -4.66666,1.111911 -7.26984,6.221152 -5.78348,10.720015 2.35976,7.142295 10.97716,11.095245 9.45722,19.825336 -1.20713,6.934847 -8.04303,10.495746 -12.24324,15.421791 -9.92808,11.643631 -10.34496,27.045161 -1.77492,39.648551 3.13461,4.60994 7.75997,11.04602 14.19935,9.51396 4.90291,-1.16639 7.32711,-6.53575 5.56541,-11.16606 -2.63402,-6.92456 -10.53716,-10.70623 -9.30469,-19.27463 0.94115,-6.54346 7.58429,-10.40279 11.67492,-14.918275 10.47493,-11.563736 11.13522,-27.318374 2.40877,-40.15208 -3.12799,-4.600275 -7.78309,-11.147276 -14.19934,-9.618608 M 186.06305,312.34562 v 0.5507 c -14.86305,0 -31.58913,-2.17363 -46.2591,0.11785 -5.46043,0.85249 -8.68385,7.09031 -5.98083,11.99543 2.83189,5.13916 8.71094,4.40783 13.69068,4.40783 h 36.89713 125.00972 33.04221 c 4.54661,0 10.79324,1.12288 14.84697,-1.30352 6.2615,-3.74809 4.42104,-13.74446 -2.73149,-15.0364 -14.46147,-2.61089 -31.54705,-0.18119 -46.2591,-0.18119 9.98315,-8.48799 20.50215,-14.94059 28.93396,-25.33237 3.38408,-4.17047 6.53631,-8.60088 9.28267,-13.21688 1.20053,-2.01833 2.20115,-5.35229 4.30485,-6.59303 1.87955,-1.10911 4.94586,-0.56612 7.04184,-0.56612 5.50208,0 11.02068,0.12667 16.52111,-0.009 11.73605,-0.28746 22.98857,-6.91243 30.1312,-15.96214 14.97087,-18.96789 10.11257,-48.43824 -10.30587,-61.43869 -10.20619,-6.49831 -21.34032,-6.84855 -33.04222,-6.84855 0,-4.67272 0.79412,-10.21886 -3.87695,-13.01478 -5.46574,-3.27075 -15.80134,-1.30308 -22.00612,-1.30308 H 281.33476 176.15038 148.61521 c -3.84992,0 -8.75002,-0.80513 -12.10699,1.48855 -4.03525,2.75682 -3.86342,7.37116 -3.86342,11.72833 v 25.88307 c 0,34.72021 7.92512,65.77327 34.14577,90.36439 5.66344,5.31154 12.06338,11.15892 19.27248,14.26929 M 344.66567,185.1331 c 0,27.23228 2.56353,54.7135 -11.49483,79.3013 -32.5185,56.87391 -119.251,65.21653 -161.73503,14.869 -23.56461,-27.92618 -22.2699,-59.77336 -22.2699,-94.1703 h 195.49976 m 12.11549,65.53372 c 4.78395,-16.9837 4.40562,-33.74271 4.40562,-51.21543 8.59153,0 17.37414,-0.39927 24.78111,4.74872 13.75547,9.56021 14.34528,30.95174 1.10197,41.21905 -8.81512,6.83479 -19.82919,5.24766 -30.2887,5.24766 z"
     id="path1590" /></svg>
