<?xml version="1.0" encoding="UTF-8" standalone="no"?>
<svg
   version="1.0"
   width="512.000000pt"
   height="512.000000pt"
   viewBox="0 0 512.000000 512.000000"
   preserveAspectRatio="xMidYMid meet"
   id="svg6"
   sodipodi:docname="pin.svg"
   xml:space="preserve"
   inkscape:export-filename="pin-resturaunt.svg"
   inkscape:export-xdpi="96"
   inkscape:export-ydpi="96"
   inkscape:version="1.2.2 (732a01da63, 2022-12-09)"
   xmlns:inkscape="http://www.inkscape.org/namespaces/inkscape"
   xmlns:sodipodi="http://sodipodi.sourceforge.net/DTD/sodipodi-0.dtd"
   xmlns="http://www.w3.org/2000/svg"
   xmlns:svg="http://www.w3.org/2000/svg"><defs
     id="defs10" /><sodipodi:namedview
     id="namedview8"
     pagecolor="#ffffff"
     bordercolor="#000000"
     borderopacity="0.25"
     inkscape:showpageshadow="2"
     inkscape:pageopacity="0.0"
     inkscape:pagecheckerboard="0"
     inkscape:deskcolor="#d1d1d1"
     inkscape:document-units="pt"
     showgrid="true"
     showguides="true"
     inkscape:zoom="0.75219727"
     inkscape:cx="355.6248"
     inkscape:cy="386.20188"
     inkscape:window-width="1278"
     inkscape:window-height="1360"
     inkscape:window-x="1266"
     inkscape:window-y="0"
     inkscape:window-maximized="0"
     inkscape:current-layer="svg6"><inkscape:grid
       type="xygrid"
       id="grid1161" /><sodipodi:guide
       position="113.51163,971.68685"
       orientation="0,-1"
       id="guide6699"
       inkscape:locked="false" /></sodipodi:namedview><g
     transform="matrix(0.12316834,0,0,-0.12316834,-59.280963,573.5759)"
     fill="#000000"
     stroke="none"
     id="g4"
     style="stroke:none;stroke-width:43.8548;stroke-dasharray:none;stroke-opacity:1;fill:#a94949;fill-opacity:0.75"><path
       d="m 2435,4645.1366 c -205,-13 -385,-61 -583,-155 -391,-186 -684,-517 -825,-934 -169,-498 -97,-1058 192,-1495 80,-121 1225,-1511.99997 1265,-1535.99997 41,-25 111,-25 153,0 17,11 260,298 540,637.99997 658,799 678,824 735,913 406,631 350,1477 -135,2030 -142,163 -296,280 -492,375 -207,101 -387,151 -575,161 -58,3 -116,6 -130,8 -14,1 -79,-1 -145,-5 z"
       id="path2"
       style="stroke:none;stroke-width:43.8548;stroke-dasharray:none;stroke-opacity:1;fill:#a94949;fill-opacity:0.75" /></g><path
     style="fill:#ffffff;fill-opacity:1;stroke:#ffffff;stroke-width:7.88312;stroke-dasharray:none;stroke-opacity:1"
     d="m 202.14445,357.20419 c -3.65907,-1.17591 -8.84623,-3.82114 -11.10584,-5.66342 -2.95696,-2.41088 -6.6935,-10.07061 -7.07311,-14.49963 -0.17494,-2.04081 1.01031,-35.76634 2.63391,-74.94563 1.6236,-39.17931 2.95194,-71.47713 2.95194,-71.77293 0,-0.29582 -2.32187,-1.70833 -5.15979,-3.13894 -3.93875,-1.98553 -6.23327,-3.72186 -9.69589,-7.33712 -5.47602,-5.7174 -7.08707,-9.76 -7.12573,-17.88042 -0.0445,-9.3139 4.0008,-85.173647 4.60079,-86.27882 0.32442,-0.597609 0.58987,-3.139638 0.58987,-5.648939 0,-5.110627 1.06081,-7.343823 3.48842,-7.343823 0.81278,0 1.99906,0.558108 2.63614,1.240245 1.11521,1.194018 1.0606,3.077397 -1.46514,50.529167 -1.79694,33.75973 -2.4429,50.21933 -2.05016,52.24209 1.18265,6.09153 3.70869,9.17625 10.95251,13.37487 2.30873,1.33817 4.34302,2.60895 4.5206,2.82397 0.1776,0.215 1.52215,0.97994 2.98789,1.69981 1.46576,0.7199 2.85546,1.78982 3.08825,2.37765 0.55369,1.39809 -2.69756,85.67472 -3.50944,90.96954 -1.13467,7.39978 -2.80294,58.20716 -2.00331,61.01045 0.92211,3.23268 5.07882,7.88822 8.96801,10.04421 2.35648,1.30631 4.20216,1.76816 8.01308,2.00496 4.58954,0.2852 5.26221,0.161 9.20402,-1.69971 2.76132,-1.30346 5.06404,-2.96688 6.56629,-4.74324 4.14542,-4.90187 4.16174,-5.1014 2.7916,-34.12971 -2.78888,-59.08561 -5.02837,-110.80806 -5.06692,-117.02241 -0.0473,-7.64174 -0.49447,-6.95053 7.38559,-11.41869 8.24014,-4.67238 10.07338,-6.14306 12.17815,-9.76962 1.73331,-2.98654 2.00718,-4.12251 2.18755,-9.07335 0.11339,-3.11266 -0.93028,-26.35602 -2.31926,-51.65188 -1.57467,-28.678096 -2.30482,-46.401953 -1.93942,-47.080156 0.9491,-1.761752 3.68386,-2.097212 5.1911,-0.636782 1.57127,1.522515 1.55748,1.354531 4.81872,58.667528 2.50994,44.11024 2.50305,45.03969 -0.38004,51.31133 -1.78628,3.8857 -9.33985,10.91673 -14.5704,13.56249 l -4.52061,2.28662 -0.15829,4.90329 c -0.0872,2.69681 1.10406,35.54884 2.64692,73.00448 1.95978,47.57728 2.62444,69.0648 2.20543,71.2985 -1.35166,7.20579 -5.87539,12.88412 -13.09182,16.43327 -4.5165,2.22127 -5.43918,2.44249 -10.86208,2.60421 -3.67873,0.1097 -6.90602,-0.13813 -8.50953,-0.65346 z"
     id="path6691" /><path
     style="fill:#ffffff;fill-opacity:1;stroke:#ffffff;stroke-width:7.23827;stroke-dasharray:none;stroke-opacity:1"
     d="m 217.24235,135.65993 -1.45548,-1.41029 V 99.590361 c 0,-37.700697 -0.0424,-37.213215 3.25262,-37.213215 3.3883,0 3.27009,-1.341088 3.27009,37.100312 0,34.528432 -0.0255,35.319462 -1.18596,36.443642 -1.53529,1.48762 -2.11684,1.44848 -3.88127,-0.26117 z"
     id="path6693" /><path
     style="fill:#ffffff;fill-opacity:1;stroke:#ffffff;stroke-width:7.23827;stroke-dasharray:none;stroke-opacity:1"
     d="m 196.85477,135.55633 c -1.21239,-1.49345 -1.22899,-1.98051 -1.22899,-36.06956 0,-30.345688 0.11246,-34.711267 0.92308,-35.832654 1.11959,-1.548783 3.28399,-1.654815 4.61826,-0.22625 0.89083,0.953786 0.98137,4.31705 0.98137,36.452135 v 35.401379 l -1.31787,0.89441 c -1.82886,1.24121 -2.5575,1.1277 -3.97585,-0.61946 z"
     id="path6695" /><path
     style="fill:#ffffff;fill-opacity:1;stroke:#ffffff;stroke-width:7.90594;stroke-dasharray:none;stroke-opacity:1"
     d="m 301.28536,356.79736 c -5.64437,-1.20105 -8.79105,-2.96665 -12.80113,-7.18271 -6.05915,-6.37038 -5.48598,8.35429 -5.48598,-140.93205 0,-145.26452 -0.27209,-135.662288 3.97713,-140.351615 4.62845,-5.107813 11.3333,-5.979049 18.48814,-2.402376 7.00195,3.500255 20.04117,18.722157 26.25561,30.65065 1.89793,3.643081 6.44764,14.808981 6.45663,15.845971 0.003,0.29028 0.42283,1.4094 0.93408,2.48691 2.35629,4.96663 4.54453,17.83721 5.19553,30.55871 0.75481,14.74904 -1.94521,41.11015 -4.83966,47.25147 -0.32234,0.6839 -1.34795,3.48169 -2.27914,6.2173 -2.54326,7.47139 -6.21797,14.49178 -10.19829,19.48343 -3.05254,3.82815 -3.56593,4.85505 -3.56593,7.13312 0,4.98651 5.07266,72.84445 5.74869,76.90145 0.75846,4.5516 2.61659,30.19325 2.56809,35.43859 -0.0174,1.88074 -0.40803,4.44054 -0.86816,5.68848 -1.15663,3.13726 -5.33358,8.16867 -8.41111,10.13174 -5.2784,3.36695 -13.92082,4.62446 -21.1745,3.08093 z m 16.2793,-8.77047 c 5.206,-2.54446 6.14451,-4.11934 6.34141,-10.64149 0.0895,-2.9676 -1.14176,-21.90254 -2.73638,-42.07766 -1.59459,-20.17512 -3.53247,-45.00567 -4.30637,-55.17897 l -1.40708,-18.4969 2.60886,-2.6419 c 3.40705,-3.45019 6.34178,-7.72776 8.3296,-12.14098 0.88124,-1.95648 2.13378,-4.56434 2.78343,-5.7952 3.8083,-7.21556 6.71579,-23.96547 7.4602,-42.978 0.78145,-19.959 -1.99628,-37.9469 -7.85309,-50.85426 -6.02181,-13.271116 -11.69501,-21.726595 -19.67554,-29.325079 -9.10315,-8.667331 -14.73517,-9.692371 -17.53827,-3.191966 -0.72733,1.68672 -0.87334,23.986577 -0.87334,133.389775 0,83.574 0.22787,132.13433 0.62634,133.48058 2.24628,7.58921 16.66147,11.13366 26.24023,6.45205 z"
     id="path6697" /></svg>
